<svg width="5rem" viewBox="0 0 78 81" fill="none" xmlns="http://www.w3.org/2000/svg" class="svelte-gxvul3"><path d="M38.9481 18.4724C38.9481 18.4724 38.9645 18.5162 38.97 18.5381C38.9754 18.5162 38.9864 18.4888 38.9919 18.4724C39.0083 18.5326 45.2752 34.0932 49.3911 44.3118C55.5814 45.7021 61.312 48.2964 66.3201 51.8486L46.0196 0H31.9149L11.5925 51.9197C16.6608 48.3074 22.4734 45.6747 28.7513 44.2845C32.7906 34.0658 38.9262 18.5381 38.9426 18.4724H38.9481Z" fill="#C2F970" class="svelte-gxvul3"></path><!----><path d="M39.0027 50.1792C20.2403 50.1792 4.47169 63.0141 0 80.3809H16.0422C19.9228 71.5524 28.7348 65.3786 39.0027 65.3786C49.2706 65.3786 58.0827 71.547 61.9632 80.3809H78.0055C73.5338 63.0141 57.7707 50.1792 39.0027 50.1792Z" fill="#C2F970" class="svelte-gxvul3"></path><!----></svg>