<svg slot="logo" width="127" height="32" viewBox="0 0 127 32" fill="none" xmlns="http://www.w3.org/2000/svg">
    <path d="M31.8303 10.7712H37.2253V30.6394H31.8303V10.7712ZM18.6962 15.0854H5.73043V1.36012H0V30.6382H5.73043V19.9676H18.6962V30.6382H24.3842V1.36012H18.6962V15.0854ZM121.834 24.1354C121.095 24.5954 120.293 24.9514 119.429 25.202C118.564 25.4526 117.687 25.5786 116.795 25.5786C115.372 25.5786 114.083 25.3549 112.925 24.909C111.767 24.4631 110.771 23.8154 109.935 22.9646C109.098 22.1138 108.45 21.0973 107.99 19.9111C107.53 18.7262 107.3 17.4089 107.3 15.958C107.3 14.5071 107.537 13.2811 108.011 12.1103C108.485 10.9395 109.126 9.93456 109.935 9.09794C110.743 8.26131 111.698 7.60718 112.801 7.13168C113.902 6.65746 115.08 6.42099 116.335 6.42099C117.198 6.42099 118.043 6.55336 118.865 6.8181C119.688 7.08284 120.468 7.47352 121.208 7.98886C121.947 8.50549 122.664 9.11208 123.362 9.80862L127.001 5.83497C126.248 4.85955 125.307 4.00236 124.178 3.26212C123.048 2.52317 121.814 1.95128 120.477 1.54775C119.139 1.14421 117.759 0.941162 116.336 0.941162C114.245 0.941162 112.299 1.31771 110.501 2.0708C108.703 2.82389 107.127 3.88413 105.775 5.24895C104.421 6.61505 103.37 8.20477 102.617 10.0168C101.864 11.8301 101.487 13.8093 101.487 15.9567C101.487 18.1042 101.843 20.181 102.554 22.0213C103.265 23.8616 104.268 25.4578 105.565 26.8097C106.862 28.163 108.395 29.2078 110.166 29.9467C111.937 30.6857 113.881 31.0545 116.001 31.0545C117.395 31.0545 118.782 30.8798 120.162 30.5315C121.542 30.1832 122.796 29.7026 123.926 29.0883C125.056 28.4753 125.955 27.7916 126.623 27.0385L123.821 22.5212C123.236 23.1342 122.573 23.6714 121.834 24.1315V24.1354ZM91.5302 19.122L98.2219 30.6806L91.5302 30.6394L85.5221 19.9741H80.2377V30.6394H74.6743V1.36012H87.473C89.2568 1.36012 90.8748 1.77136 92.3244 2.59385C93.774 3.41634 94.9242 4.52541 95.775 5.91979C96.6245 7.31417 97.0511 8.90388 97.0511 10.6877C97.0511 12.4714 96.6257 13.9429 95.775 15.3514C94.9242 16.7599 93.774 17.8819 92.3244 18.7185C92.0661 18.8676 91.7988 18.9987 91.5302 19.122ZM91.3631 10.8547C91.3631 9.96284 91.16 9.18918 90.7565 8.53376C90.3517 7.87834 89.7798 7.363 89.0421 6.98646C88.3032 6.60991 87.4588 6.42228 86.5117 6.42228H80.2377V15.1227H87.4319C88.2119 15.1227 88.8956 14.935 89.4817 14.5585C90.0677 14.1819 90.5278 13.673 90.8619 13.0318C91.196 12.3905 91.3644 11.6656 91.3644 10.8573L91.3631 10.8547ZM34.5278 0.942447C32.8225 0.942447 31.4409 2.32397 31.4409 4.02935C31.4409 5.73473 32.8225 7.11625 34.5278 7.11625C36.2332 7.11625 37.6147 5.73473 37.6147 4.02935C37.6147 2.32397 36.2319 0.942447 34.5278 0.942447ZM56.2004 8.09939C56.2004 8.09939 56.2056 8.11481 56.2081 8.1238C56.2081 8.1238 56.2081 8.1238 56.2081 8.12252C56.2081 8.12252 56.2081 8.12252 56.2081 8.1238C56.2107 8.11609 56.2146 8.10581 56.2158 8.09939C56.2223 8.11995 59.6369 16.864 60.2216 18.3612C62.5991 18.937 64.7813 20.0101 66.6512 21.4674L58.781 1.36012H53.6353L45.7689 21.4558C47.6388 20.0023 49.8197 18.9318 52.1946 18.3574C52.7832 16.8512 56.1927 8.11866 56.1991 8.0981L56.2004 8.09939Z" fill="#FEFFE3"></path>
    <path d="M56.2196 19.6646C49.375 19.6646 43.624 24.3463 41.9932 30.682H47.8444C49.2593 27.4602 52.4748 25.2099 56.2184 25.2099C59.962 25.2099 63.1787 27.4602 64.5923 30.682H70.4449C68.814 24.3463 63.063 19.6646 56.2184 19.6646H56.2196Z" fill="#C2F970"></path>
  </svg>