<svg id="Layer_4" data-name="Layer 4" xmlns="http://www.w3.org/2000/svg" viewBox="0 0 4000 1410.94"><defs><style>.cls-1{fill:#174b8c;}.cls-2{fill:#fdd922;}</style></defs><path class="cls-1" d="M2251.53,1208.55c-109.59,0-174.83,37.21-243.2,83-19.16,12.85-37.61,25.65-56,37.67-21.36,14-42.78,26.86-64.89,38-48.44,24.44-104.56,42.67-172.49,42.67L0,1410.94,2725.5,148.68,3940,1208.55Z"/><path class="cls-2" d="M2747.13,0,34.25,1305.73l1680.29-1c192,0,256.59-201.36,536.65-201.36H4000Z"/><path class="cls-1" d="M758.39,949.18l37.17-132.55L820.12,738,676.25,949.18H580.52L568.34,732l-18.2,84.66L513,949.18H427.32l99.89-356.31H631.53L652.4,872.56,844.68,592.87H944L844.07,949.18Zm322.61,5c-130.51,0-179.6-64-146.82-180.9,34.75-124,117.74-184.45,247.25-184.45,52.9,0,81.75,8.57,105.06,20.67l-40.06,62c-31.2-9.08-44.61-11.61-83.77-12.12-64.23-1-119,34.29-139.88,108.87s15.31,114.4,87.36,114.4c34.78,0,56.27-3,85.47-10.1l.05,64.5C1157.87,949.67,1126.86,954.2,1081,954.2Zm396,.51c-58.45,0-89.75-10.57-112.36-25.2L1406,868.05c28.65,11.08,50.42,16.12,89.72,16.12,42.84,0,66.16-13.12,72.24-34.78,16.25-58-157.47-42.33-123.56-163.28,19.21-68.52,92-96.26,155-96.26,56.45,0,80.28,12.12,104.6,24.2l-41.36,59.46c-24.09-7.57-43.78-14.59-80.07-14.59-35.78,0-50.1,11.57-54.35,26.7C1514.93,733,1687.28,733,1655.5,846.35,1633.6,924.48,1550.53,954.71,1477,954.71Zm556.13-.51c-39.81,0-71.34-2.51-97.29-10.59l26.86-63.48c34.36,5,62.66,6.55,81.31,6.55,42.32,0,50.19-10.08,52.45-18.14,8.34-29.74-134.19-15.62-106.5-114.4C2006.58,694.68,2070,668,2130,668c33.76,0,62.73,4.53,88.62,14.62l-31.21,61c-25-6-45.33-9.06-73.55-9.06-28.72,0-36.95,9.57-38.64,15.61-8.76,31.25,131.21,22.68,105.35,114.9C2160.2,937.57,2079.45,954.2,2033.08,954.2ZM2278.7,736,2243,863.5c-26.28,93.74,36.4,91.21,89.31,91.21,20.16,0,48-4,69.19-9.59l10.45-66s-42.36,5.55-61,5.55c-22.66,0-29.81-1.51-24.15-21.69l35.6-127h85.16l17.38-62h-85.16l13.3-47.46-146.25,79.49-8.4,30Zm254.8,101.28c-12.66,43.35,20.32,47.88,64.18,47.88a523.25,523.25,0,0,0,80.46-6.57l-5.37,64c-33.28,9.06-73.15,11.08-106.4,11.08-90.7,0-141.25-28.22-110.45-138.08,31.51-112.38,100.49-148.16,183.64-148.16,86.68,0,104.1,56.44,80.79,139.59l-8.47,30.23Zm82.06-105.81c-20.65,0-51.76,12.08-63.44,48.37h89.69C2652.16,746.6,2634.22,731.48,2615.56,731.48Zm456.74,217.7,46.48-165.8c9.47-33.77,3.89-44.35-22.32-44.35-18.14,0-43.43,7.57-61.31,15.61a163.18,163.18,0,0,1-4.94,21.17L2981.6,949.18H2898l46.48-165.8c10.6-37.8,3.08-43.35-22.11-43.35-18.65,0-43,6.06-60.39,14.11l-54.68,195h-84.16L2800.23,674h84.17l-7.77,27.72c16.41-10.08,66.46-35.8,99.22-35.8,39.31,0,61.5,16.14,65.37,41.84,26.54-19.14,70.71-41.84,106.47-41.84,89.69,0,70.25,64,57.26,110.38l-48.47,172.86Zm225.62,5c-39.8,0-71.35-2.51-97.31-10.59l26.87-63.48c34.37,5,62.67,6.55,81.31,6.55,42.33,0,50.19-10.08,52.45-18.14,8.34-29.74-134.19-15.62-106.5-114.4,16.68-59.46,80.08-86.16,140.07-86.16,33.76,0,62.72,4.53,88.61,14.62l-31.2,61c-25-6-45.34-9.06-73.55-9.06-28.72,0-37,9.57-38.65,15.61-8.76,31.25,131.23,22.68,105.38,114.9C3425.05,937.57,3344.29,954.2,3297.92,954.2ZM254.58,592.87H168.93l-55.06,196.4L228.38,686.33Zm231.32,0H382.66L96.93,849.66,69,949.18h85.66l48-171.35,82,171.35H394.07L295,759.67ZM1789.64,674h-90.22l16.87,263.62L1791,816.28Zm212.15,0h-82.44L1681.7,1060H1759Z"/></svg>