<svg id="Layer_4" data-name="Layer 4" xmlns="http://www.w3.org/2000/svg" viewBox="0 0 4000 1412.38"><defs><style>.cls-1{fill:#fff;}</style></defs><path class="cls-1" d="M2242.78,1105.92c-279,0-343.4,200.61-534.64,200.61l-1481.56.91L0,1412.38l1708.51-1c67.67,0,123.58-18.15,171.84-42.5,22-11.13,43.37-24,64.65-37.89,18.37-12,36.75-24.73,55.83-37.53,68.11-45.62,133.11-82.69,242.29-82.69H3925.29l-120.11-104.82Z"/><path class="cls-1" d="M616.93,1020.79,9.37,1313.21l217.21-.13,1481.56-.91c48.81,0,89.71-12.86,127.52-32,56.74-28.66,106.82-71,168.55-105.92s135-62.71,238.57-62.74H4000L2737.8,0,1645.47,525.75l4.89,10.16L2736,13.4,3970.13,1100.28H2242.78c-140.9-.07-228.35,51-303.37,101.26-37.54,25.16-72.08,50.09-108.83,68.61s-75.63,30.73-122.44,30.75l-1481.56.9-167.72.11,563-271-4.9-10.16Z"/><path class="cls-1" d="M2093.9,1371.7l-7.69-26.86h-28.68l-7.8,26.86h-10.45l27.85-88.84h10.44l28,88.84Zm-19.33-67.53a93,93,0,0,1-2.4-11.49h-.24a109.81,109.81,0,0,1-2.52,11.49l-9.73,33.57h24.5Z"/><path class="cls-1" d="M2152.9,1371.7v-48c0-10.46-4-15.63-14.52-15.63a26.33,26.33,0,0,0-11.41,2.33v61.33h-10.56v-66a51,51,0,0,1,22-4.91c17.41,0,25.09,8.14,25.09,22.86v48Z"/><path class="cls-1" d="M2214.44,1371.7v-88.84h38.29v8h-27.25v31H2250v7.88h-24.48v34h27.25v8Z"/><path class="cls-1" d="M2267.54,1371.7V1270.34h10.56V1371.7Z"/><path class="cls-1" d="M2315.94,1373c-7.68,0-14.88-2.2-19.2-4.91v-97.74h10.43v33.83a26.63,26.63,0,0,1,13-3.1c15.13,0,25.34,13.43,25.34,34.48C2345.48,1358,2335.27,1373,2315.94,1373Zm1.57-65.08a22.48,22.48,0,0,0-10.34,2.59V1364a22.47,22.47,0,0,0,9.14,1.8c13.32,0,18.61-12.13,18.61-29.56S2328.67,1307.91,2317.51,1307.91Z"/><path class="cls-1" d="M2366.05,1288.81a6.33,6.33,0,1,1,6.37-6.33A6.37,6.37,0,0,1,2366.05,1288.81Zm-5.27,82.89v-69.6h10.56v69.6Z"/><path class="cls-1" d="M2408.23,1372.34c-9.25,0-15.5-6.07-15.5-17.56V1309.2h-7.44v-7.1h7.44v-16l10.56-3.48v19.49h11.29v7.1h-11.29v45.58c0,6.07,2.77,9.69,8.05,9.69a8.72,8.72,0,0,0,3.24-.52v7.23A15.36,15.36,0,0,1,2408.23,1372.34Z"/><path class="cls-1" d="M2477.9,1373c-7.81,0-15.25-1.68-20.28-4.91l3.24-8c4.44,2.83,10.32,4.13,16.2,4.13,10.2,0,15.73-6.59,15.73-15.24,0-22-34.22-15.23-34.22-44.28,0-14,10-23.11,24.73-23.11a33.61,33.61,0,0,1,17.65,4.9l-2.89,7.23a26.91,26.91,0,0,0-13.91-4c-9.25,0-14.65,5.16-14.65,14.2,0,21.56,34.57,14.46,34.57,44.42C2504.07,1362.53,2493.75,1373,2477.9,1373Z"/><path class="cls-1" d="M2533,1399.46h-11.29l10.69-27.76-21.73-69.6H2522l13.58,50.49a56.37,56.37,0,0,1,1.44,8.65h.24a66.66,66.66,0,0,1,1.8-8.65l14-50.49h10Z"/><path class="cls-1" d="M2588.65,1373c-6.35,0-13.32-1.81-17.41-4.78l3-7.23a24.6,24.6,0,0,0,13.32,4c7.57,0,12.49-5.16,12.49-12,0-17-27.38-10.2-27.38-33.17,0-10.72,8.05-19,19.93-19a27.72,27.72,0,0,1,16.22,4.78l-2.77,6.71a22.12,22.12,0,0,0-12-4c-7.44,0-10.92,4.91-10.92,11,0,15.87,27.61,9.42,27.61,33.18C2610.74,1363.69,2601.86,1373,2588.65,1373Z"/><path class="cls-1" d="M2643.57,1372.34c-9.25,0-15.49-6.07-15.49-17.56V1309.2h-7.45v-7.1h7.45v-16l10.56-3.48v19.49h11.29v7.1h-11.29v45.58c0,6.07,2.76,9.69,8.05,9.69a8.78,8.78,0,0,0,3.24-.52v7.23A15.45,15.45,0,0,1,2643.57,1372.34Z"/><path class="cls-1" d="M2669.89,1341.36c1,14.33,7.68,23.49,19.92,23.49,5.88,0,12.12-1.8,15.73-4.13l2.76,7.36c-4.57,2.84-12,4.91-19.57,4.91-18.49,0-29.05-13.69-29.05-36.28,0-21.82,9.73-35.9,26.16-35.9,15.5,0,24.73,10.85,24.73,32.8v1.29Zm15.71-33.45c-10.68,0-16.19,10.85-16.19,26.6v.64l31-5.16C2700.14,1315.92,2695.69,1307.91,2685.6,1307.91Z"/><path class="cls-1" d="M2797.78,1371.7v-48.55c0-9.17-3.85-15.11-13.33-15.11-5.27,0-9.48,2.58-12.61,6.59v57.07H2761.4v-50.36c0-8-4.08-13.3-13.68-13.3a27,27,0,0,0-12.13,2.33v61.33h-10.44v-66a50.51,50.51,0,0,1,22.21-4.91c9.72,0,15.24,2.84,19.45,8.14a24.11,24.11,0,0,1,18.6-8.14c15.85,0,22.81,9.17,22.81,22.47v48.42Z"/><path class="cls-1" d="M2839.15,1373c-6.36,0-13.32-1.81-17.41-4.78l3-7.23a24.63,24.63,0,0,0,13.32,4c7.57,0,12.49-5.16,12.49-12,0-17-27.37-10.2-27.37-33.17,0-10.72,8.05-19,19.93-19a27.69,27.69,0,0,1,16.21,4.78l-2.76,6.71a22.14,22.14,0,0,0-12-4c-7.44,0-10.93,4.91-10.93,11,0,15.87,27.62,9.42,27.62,33.18C2861.24,1363.69,2852.36,1373,2839.15,1373Z"/><path class="cls-1" d="M2931.77,1373c-17.53,0-25.57-15.24-25.57-36.16s8-36,25.57-36,25.56,15.24,25.56,36S2949.3,1373,2931.77,1373Zm0-65c-11.29,0-15,13-15,28.54s3.72,28.79,15,28.79,15-13.3,15-28.79S2943.05,1308,2931.77,1308Z"/><path class="cls-1" d="M2985.35,1309.2v62.5h-10.56v-62.5h-7.44v-7.1h7.44v-9.81c0-13.17,6.73-22.07,19.69-22.07a17.25,17.25,0,0,1,2.16.12v7.36h-.72c-5.64,0-10.57,3.1-10.57,14.2v10.2h11.29v7.1Z"/><path class="cls-1" d="M3087.32,1371.7l-7.68-26.86H3051l-7.79,26.86h-10.45l27.84-88.84H3071l28,88.84ZM3068,1304.17a93,93,0,0,1-2.4-11.49h-.24a109.81,109.81,0,0,1-2.52,11.49l-9.73,33.57h24.5Z"/><path class="cls-1" d="M3182.47,1371.7v-48.55c0-9.17-3.85-15.11-13.34-15.11-5.27,0-9.47,2.58-12.6,6.59v57.07h-10.44v-50.36c0-8-4.08-13.3-13.68-13.3a27.09,27.09,0,0,0-12.14,2.33v61.33h-10.43v-66a50.48,50.48,0,0,1,22.21-4.91c9.72,0,15.23,2.84,19.45,8.14a24.09,24.09,0,0,1,18.59-8.14c15.86,0,22.81,9.17,22.81,22.47v48.42Z"/><path class="cls-1" d="M3217.72,1341.36c1,14.33,7.68,23.49,19.92,23.49,5.88,0,12.12-1.8,15.73-4.13l2.76,7.36c-4.56,2.84-12,4.91-19.56,4.91-18.5,0-29.06-13.69-29.06-36.28,0-21.82,9.73-35.9,26.17-35.9,15.49,0,24.72,10.85,24.72,32.8v1.29Zm15.72-33.45c-10.69,0-16.2,10.85-16.2,26.6v.64l31-5.16C3248,1315.92,3243.52,1307.91,3233.44,1307.91Z"/><path class="cls-1" d="M3298.31,1309.72a18,18,0,0,0-6.6-1.16,17,17,0,0,0-8.16,1.81v61.33H3273v-66c5.51-3,12.84-4.91,22.07-4.91a40,40,0,0,1,5.66.39Z"/><path class="cls-1" d="M3317.66,1288.81a6.33,6.33,0,1,1,6.37-6.33A6.37,6.37,0,0,1,3317.66,1288.81Zm-5.28,82.89v-69.6h10.56v69.6Z"/><path class="cls-1" d="M3363.3,1373c-15.6,0-25.09-14.85-25.09-36.16s9.6-36,25.09-36c6,0,11,1.68,14.52,4.52l-2.52,6.71a16.75,16.75,0,0,0-10.21-3.48c-10.32,0-16.08,12-16.08,28,0,15.75,5.88,28.15,16.08,28.15a16.29,16.29,0,0,0,10.09-3.36l2.64,7.1C3374.34,1371.31,3369.29,1373,3363.3,1373Z"/><path class="cls-1" d="M3412,1373c-15.48,0-24.6-7.24-24.6-21,0-16.79,15.36-23.24,36.24-25.43v-4.27c0-9.55-4.79-13.81-13.8-13.81a34.07,34.07,0,0,0-16.21,4.39l-2.51-7a42.69,42.69,0,0,1,19.68-5c14.05,0,22.69,7.1,22.69,22.6v44.67C3428.28,1371.05,3420.6,1373,3412,1373Zm11.64-40.55c-16.44,2.07-26.16,7-26.16,19.24,0,9.43,5.4,14.72,15.49,14.72a23.41,23.41,0,0,0,10.67-2.32Z"/><path class="cls-1" d="M3512.62,1373c-21.25,0-31-22-31-45.71s9.72-45.7,31-45.7a26.92,26.92,0,0,1,16.2,4.9l-2.75,7.23a22.46,22.46,0,0,0-12.13-3.74c-14.88,0-20.77,18.59-20.77,37.18s6,36.93,20.65,36.93a22.48,22.48,0,0,0,12.12-3.74l2.88,7.74A26.93,26.93,0,0,1,3512.62,1373Z"/><path class="cls-1" d="M3562.73,1373c-17.54,0-25.57-15.24-25.57-36.16s8-36,25.57-36,25.56,15.24,25.56,36S3580.25,1373,3562.73,1373Zm0-65c-11.29,0-15,13-15,28.54s3.72,28.79,15,28.79,15-13.3,15-28.79S3574,1308,3562.73,1308Z"/><path class="cls-1" d="M3675.5,1371.7v-48.55c0-9.17-3.85-15.11-13.34-15.11-5.27,0-9.47,2.58-12.6,6.59v57.07h-10.44v-50.36c0-8-4.08-13.3-13.68-13.3a27.09,27.09,0,0,0-12.14,2.33v61.33h-10.43v-66a50.47,50.47,0,0,1,22.2-4.91c9.73,0,15.24,2.84,19.46,8.14a24.09,24.09,0,0,1,18.59-8.14c15.86,0,22.81,9.17,22.81,22.47v48.42Z"/><path class="cls-1" d="M3723.59,1372.73a31.61,31.61,0,0,1-10.09-1.68v28.41h-10.44v-93.87a41.5,41.5,0,0,1,20.05-4.78c18.48,0,28.69,13.69,28.69,34.86C3751.8,1358.92,3740.63,1372.73,3723.59,1372.73Zm-.85-64.94a21.13,21.13,0,0,0-9.24,1.81v54.48a21.64,21.64,0,0,0,7.81,1.41c13.2,0,19.93-10.71,19.93-29.17C3741.24,1318.89,3736.31,1307.79,3722.74,1307.79Z"/><path class="cls-1" d="M3787.74,1373c-15.48,0-24.6-7.24-24.6-21,0-16.79,15.37-23.24,36.24-25.43v-4.27c0-9.55-4.79-13.81-13.8-13.81a34.07,34.07,0,0,0-16.21,4.39l-2.51-7a42.72,42.72,0,0,1,19.68-5c14.05,0,22.7,7.1,22.7,22.6v44.67C3804.08,1371.05,3796.39,1373,3787.74,1373Zm11.64-40.55c-16.43,2.07-26.16,7-26.16,19.24,0,9.43,5.4,14.72,15.49,14.72a23.38,23.38,0,0,0,10.67-2.32Z"/><path class="cls-1" d="M3862.82,1371.7v-48c0-10.46-4-15.63-14.53-15.63a26.28,26.28,0,0,0-11.4,2.33v61.33h-10.56v-66a51,51,0,0,1,22-4.91c17.41,0,25.1,8.14,25.1,22.86v48Z"/><path class="cls-1" d="M3907.05,1399.46h-11.3l10.69-27.76-21.72-69.6H3896l13.58,50.49a56.37,56.37,0,0,1,1.44,8.65h.24a68.37,68.37,0,0,1,1.8-8.65l14-50.49h10Z"/><path class="cls-1" d="M755.56,952.33l37-132.05L817.06,742,673.72,952.33H578.35L566.22,735.94l-18.13,84.34-37,132.05H425.72l99.53-355H629.18L650,876,841.53,597.36h98.91l-99.52,355Zm321.41,5c-130,0-178.93-63.76-146.28-180.23C965.32,653.61,1048,593.36,1177,593.36c52.7,0,81.44,8.53,104.67,20.58l-39.92,61.76c-31.08-9-44.44-11.56-83.45-12.07-64-1-118.53,34.16-139.36,108.46s15.25,114,87,114c34.65,0,56.07-3,85.15-10.06l0,64.26C1153.55,952.82,1122.66,957.34,1077,957.34Zm394.46.5c-58.22,0-89.41-10.53-111.93-25.09l41.25-61.24c28.55,11,50.23,16.06,89.39,16.06,42.68,0,65.91-13.07,72-34.65,16.19-57.74-156.87-42.17-123.09-162.67,19.14-68.26,91.66-95.9,154.41-95.9,56.23,0,80,12.07,104.21,24.1l-41.2,59.25c-24-7.54-43.63-14.54-79.78-14.54-35.65,0-49.91,11.53-54.14,26.6C1509.28,737,1681,737,1649.32,849.89,1627.5,927.73,1544.74,957.84,1471.43,957.84Zm554.06-.5c-39.67,0-71.08-2.5-96.93-10.55l26.76-63.25c34.24,5,62.43,6.53,81,6.53,42.17,0,50-10,52.25-18.07,8.31-29.63-133.69-15.57-106.1-114,16.61-59.24,79.79-85.84,139.54-85.84,33.64,0,62.49,4.51,88.28,14.57l-31.08,60.72c-24.92-6-45.17-9-73.28-9-28.61,0-36.81,9.53-38.5,15.55-8.73,31.13,130.72,22.6,105,114.47C2152.14,940.77,2071.69,957.34,2025.49,957.34ZM2270.19,740l-35.61,127c-26.18,93.38,36.27,90.86,89,90.86,20.08,0,47.8-4,68.93-9.55l10.4-65.74s-42.19,5.52-60.79,5.52c-22.58,0-29.69-1.5-24.06-21.6L2353.52,740h84.85l17.31-61.76h-84.85l13.26-47.28-145.7,79.2L2230,740Zm253.86,100.91c-12.62,43.18,20.24,47.69,63.93,47.69a521.27,521.27,0,0,0,80.16-6.54l-5.34,63.79c-33.16,9-72.88,11-106,11-90.36,0-140.72-28.11-110-137.57,31.39-112,100.12-147.6,183-147.6,86.35,0,103.71,56.23,80.49,139.07l-8.45,30.12Zm81.74-105.42c-20.57,0-51.56,12-63.2,48.19H2632C2642.26,750.51,2624.39,735.45,2605.79,735.45Zm455,216.88,46.31-165.18c9.43-33.63,3.87-44.18-22.24-44.18-18.07,0-43.27,7.54-61.08,15.55a161.56,161.56,0,0,1-4.92,21.09l-48.43,172.72h-83.34l46.31-165.18c10.56-37.66,3.07-43.18-22-43.18-18.58,0-42.87,6-60.16,14.06l-54.48,194.3h-83.85l76.86-274.13h83.85l-7.74,27.62c16.35-10,66.21-35.66,98.85-35.66,39.16,0,61.28,16.07,65.13,41.68,26.44-19.07,70.44-41.68,106.07-41.68,89.36,0,70,63.79,57,110L3144.7,952.33Zm224.78,5c-39.65,0-71.08-2.5-97-10.55l26.77-63.25c34.24,5,62.43,6.53,81,6.53,42.17,0,50-10,52.26-18.07,8.3-29.63-133.69-15.57-106.11-114,16.61-59.24,79.78-85.84,139.55-85.84,33.63,0,62.48,4.51,88.28,14.57l-31.09,60.72c-24.92-6-45.17-9-73.27-9-28.62,0-36.82,9.53-38.51,15.55-8.72,31.13,130.74,22.6,105,114.47C3412.27,940.77,3331.8,957.34,3285.61,957.34Zm-3032-360H168.3L113.44,793,227.53,690.47Zm230.46,0H381.23L96.57,853.19,68.78,952.33h85.33L202,781.63l81.68,170.7h109L293.9,763.54ZM1783,678.2h-89.89l16.81,262.65,74.44-120.92Zm211.35,0h-82.13l-236.76,384.59h77Z"/></svg>